<svg width="192" height="41" viewBox="0 0 192 41" fill="none" xmlns="http://www.w3.org/2000/svg">
<path d="M64.33 26.06C64.33 27.32 64.02 28.42 63.4 29.36C62.78 30.3 61.88 31.03 60.7 31.55C59.54 32.05 58.12 32.3 56.44 32.3C55.7 32.3 54.97 32.25 54.25 32.15C53.55 32.05 52.87 31.91 52.21 31.73C51.57 31.53 50.96 31.29 50.38 31.01V26.78C51.4 27.22 52.45 27.63 53.53 28.01C54.63 28.37 55.72 28.55 56.8 28.55C57.54 28.55 58.13 28.45 58.57 28.25C59.03 28.05 59.36 27.78 59.56 27.44C59.78 27.1 59.89 26.71 59.89 26.27C59.89 25.73 59.7 25.27 59.32 24.89C58.96 24.51 58.47 24.16 57.85 23.84C57.23 23.5 56.52 23.14 55.72 22.76C55.22 22.52 54.68 22.24 54.1 21.92C53.52 21.58 52.96 21.17 52.42 20.69C51.9 20.19 51.47 19.59 51.13 18.89C50.79 18.19 50.62 17.35 50.62 16.37C50.62 15.09 50.91 14 51.49 13.1C52.09 12.18 52.93 11.48 54.01 11C55.11 10.52 56.4 10.28 57.88 10.28C59 10.28 60.06 10.41 61.06 10.67C62.08 10.93 63.14 11.3 64.24 11.78L62.77 15.32C61.79 14.92 60.91 14.61 60.13 14.39C59.35 14.17 58.55 14.06 57.73 14.06C57.17 14.06 56.69 14.15 56.29 14.33C55.89 14.51 55.58 14.76 55.36 15.08C55.16 15.4 55.06 15.78 55.06 16.22C55.06 16.72 55.21 17.15 55.51 17.51C55.81 17.85 56.26 18.18 56.86 18.5C57.46 18.82 58.21 19.2 59.11 19.64C60.21 20.16 61.14 20.7 61.9 21.26C62.68 21.82 63.28 22.48 63.7 23.24C64.12 24 64.33 24.94 64.33 26.06ZM76.4734 32H71.9434V14.36H66.1234V10.58H82.2934V14.36H76.4734V32ZM103.026 24.44C103.026 25.92 102.696 27.26 102.036 28.46C101.396 29.64 100.416 30.58 99.0965 31.28C97.7965 31.96 96.1465 32.3 94.1465 32.3C91.3065 32.3 89.1465 31.58 87.6665 30.14C86.1865 28.68 85.4465 26.76 85.4465 24.38V10.58H89.9765V23.69C89.9765 25.45 90.3365 26.69 91.0565 27.41C91.7765 28.13 92.8465 28.49 94.2665 28.49C95.2665 28.49 96.0765 28.32 96.6965 27.98C97.3165 27.64 97.7665 27.11 98.0465 26.39C98.3465 25.67 98.4965 24.76 98.4965 23.66V10.58H103.026V24.44ZM126.032 21.08C126.032 23.48 125.572 25.49 124.652 27.11C123.732 28.73 122.392 29.95 120.632 30.77C118.892 31.59 116.792 32 114.332 32H108.272V10.58H114.992C117.232 10.58 119.172 10.98 120.812 11.78C122.472 12.58 123.752 13.76 124.652 15.32C125.572 16.86 126.032 18.78 126.032 21.08ZM121.322 21.2C121.322 19.62 121.092 18.32 120.632 17.3C120.172 16.28 119.482 15.53 118.562 15.05C117.662 14.55 116.552 14.3 115.232 14.3H112.802V28.25H114.752C116.972 28.25 118.622 27.66 119.702 26.48C120.782 25.3 121.322 23.54 121.322 21.2ZM136.846 19.4L141.316 10.58H146.206L139.096 23.66V32H134.596V23.81L127.486 10.58H132.406L136.846 19.4Z" fill="#7653FC"/>
<path d="M158.04 30C158.04 29.632 158.048 29.192 158.064 28.68C158.08 28.152 158.096 27.696 158.112 27.312H158.04C157.768 28.16 157.232 28.864 156.432 29.424C155.632 29.984 154.648 30.264 153.48 30.264C151.816 30.264 150.544 29.704 149.664 28.584C148.784 27.464 148.344 25.832 148.344 23.688C148.344 22.424 148.536 21.296 148.92 20.304C149.32 19.296 149.92 18.504 150.72 17.928C151.536 17.336 152.56 17.04 153.792 17.04C154.912 17.04 155.824 17.296 156.528 17.808C157.232 18.32 157.728 18.928 158.016 19.632H158.064L158.208 17.28H158.976V35.616H158.04V30ZM153.552 29.424C154.608 29.424 155.464 29.2 156.12 28.752C156.776 28.304 157.256 27.656 157.56 26.808C157.88 25.944 158.048 24.912 158.064 23.712V23.448C158.064 21.64 157.72 20.264 157.032 19.32C156.36 18.36 155.304 17.88 153.864 17.88C152.36 17.88 151.224 18.392 150.456 19.416C149.688 20.424 149.304 21.848 149.304 23.688C149.304 25.576 149.656 27.008 150.36 27.984C151.064 28.944 152.128 29.424 153.552 29.424ZM172.964 17.28V30H172.196L172.052 27.528H172.004C171.812 28.008 171.516 28.456 171.116 28.872C170.732 29.288 170.236 29.624 169.628 29.88C169.036 30.12 168.324 30.24 167.492 30.24C166.532 30.24 165.724 30.072 165.068 29.736C164.428 29.384 163.94 28.864 163.604 28.176C163.268 27.488 163.1 26.632 163.1 25.608V17.28H164.036V25.512C164.036 26.84 164.34 27.824 164.948 28.464C165.556 29.088 166.428 29.4 167.564 29.4C168.492 29.4 169.284 29.216 169.94 28.848C170.612 28.48 171.124 27.936 171.476 27.216C171.844 26.48 172.028 25.552 172.028 24.432V17.28H172.964ZM178.197 17.28V30H177.261V17.28H178.197ZM177.717 12.624C178.021 12.624 178.221 12.704 178.317 12.864C178.429 13.024 178.485 13.232 178.485 13.488C178.485 13.744 178.429 13.952 178.317 14.112C178.221 14.272 178.021 14.352 177.717 14.352C177.461 14.352 177.277 14.272 177.165 14.112C177.053 13.952 176.997 13.744 176.997 13.488C176.997 13.232 177.053 13.024 177.165 12.864C177.277 12.704 177.461 12.624 177.717 12.624ZM190.312 30H181.312V29.4L189.136 18.096H181.912V17.28H190.336V17.904L182.488 29.184H190.312V30Z" fill="#7653FC"/>
<path d="M41 3.17933C41 2.52803 40.4622 2 39.7988 2C39.1355 2 38.5977 2.52803 38.5977 3.17933C38.5977 4.45797 37.4609 5.53808 36.1152 5.53808H30.6968C27.6077 3.99433 24.0892 3.17941 20.5 3.17941C16.9108 3.17941 13.3923 3.99433 10.3032 5.53808H4.89942C3.54586 5.53816 2.40234 4.45797 2.40234 3.17933C2.40234 2.52803 1.86454 2 1.20117 2C0.537805 2 0 2.52803 0 3.17933V6.71742C0 8.9054 0.88198 10.9672 2.48386 12.5289C0.856035 15.1417 0 18.0044 0 20.8695C0 30.6238 9.19625 38.5595 20.5 38.5595C31.8037 38.5595 41 30.6238 41 20.8695C41 18.0088 40.1464 15.15 38.523 12.5402C40.0529 11.0463 41 8.98748 41 6.71749V3.17933ZM20.5001 5.53816C22.4136 5.53816 24.3025 5.79636 26.0992 6.29569C24.7576 6.82356 23.5262 7.61796 22.474 8.65255C21.6723 9.44089 21.0131 10.3314 20.5074 11.2935C20.0017 10.3314 19.3425 9.44089 18.5407 8.65255C17.487 7.61638 16.2535 6.8212 14.9094 6.29333C16.7036 5.79557 18.5895 5.53816 20.5001 5.53816ZM20.5 25.1174C20.9492 25.8494 21.5108 26.5074 22.1611 27.069L20.5 30.1451L18.8389 27.0689C19.4892 26.5074 20.0508 25.8493 20.5 25.1174ZM13.293 26.7662C9.98134 26.7662 7.28711 24.1209 7.28711 20.8695C7.28711 17.6181 9.98134 14.9728 13.293 14.9728C16.6046 14.9728 19.2988 17.6181 19.2988 20.8695C19.2988 24.1209 16.6046 26.7662 13.293 26.7662ZM21.7012 20.8695C21.7012 20.7757 21.704 20.6825 21.7084 20.5898C21.7167 20.5334 21.7225 20.4762 21.7223 20.4175V20.395C21.9695 17.3648 24.5582 14.9728 27.707 14.9728C31.0187 14.9728 33.7129 17.6181 33.7129 20.8695C33.7129 24.1209 31.0187 26.7662 27.707 26.7662C24.3954 26.7662 21.7012 24.1209 21.7012 20.8695ZM2.42621 7.24136C3.17278 7.66875 4.0212 7.89683 4.89942 7.89683H10.5791H10.585H10.8906C13.139 7.89683 15.2521 8.75711 16.8407 10.3192C18.1513 11.608 18.9743 13.2466 19.2204 15.0202C17.8662 13.6973 16.0568 12.8237 14.0459 12.6477C13.956 12.6265 13.8626 12.6142 13.7661 12.6142H8.50286C7.1907 12.6142 5.97455 12.2109 4.97846 11.527C4.91423 11.4542 4.84104 11.3871 4.7568 11.3296C4.70067 11.2913 4.64205 11.2597 4.58223 11.2319C3.3801 10.2549 2.57227 8.83865 2.42621 7.24136ZM38.5977 20.8695C38.5977 29.3232 30.4791 36.2009 20.5 36.2009C10.5209 36.2009 2.40234 29.3232 2.40234 20.8695C2.40234 18.5099 3.09582 16.1386 4.41687 13.9492C5.36259 14.4579 6.39808 14.7856 7.47769 14.9127C5.88062 16.4162 4.88477 18.5307 4.88477 20.8695C4.88477 25.4215 8.65668 29.1249 13.293 29.1249C14.5513 29.1249 15.7457 28.8516 16.8185 28.3631L19.4387 33.2153C19.6471 33.6011 20.0553 33.8423 20.5 33.8423C20.9447 33.8423 21.3529 33.6011 21.5613 33.2153L24.1815 28.3631C25.2543 28.8516 26.4488 29.1249 27.707 29.1249C32.3433 29.1249 36.1152 25.4215 36.1152 20.8695C36.1152 18.5314 35.1199 16.4174 33.5237 14.9139C34.6228 14.7863 35.6581 14.4539 36.5878 13.9568C37.9058 16.1442 38.5977 18.5129 38.5977 20.8695ZM36.3987 11.2509C36.3475 11.2759 36.2972 11.3035 36.2489 11.3365C36.1712 11.3895 36.1028 11.4506 36.042 11.5167C35.0456 12.2067 33.8271 12.6141 32.5117 12.6141H27.2484C27.1547 12.6141 27.0639 12.6256 26.9764 12.6456C24.9648 12.8165 23.1538 13.6853 21.7964 15.004C22.0453 13.2366 22.8673 11.6039 24.1739 10.3191C25.7625 8.75704 27.8756 7.89675 30.1239 7.89675H30.3957C30.3984 7.89675 30.401 7.89699 30.4037 7.89699C30.406 7.89699 30.4083 7.89675 30.4106 7.89675H36.1152C36.9885 7.89675 37.8315 7.67087 38.5732 7.24765C38.425 8.85296 37.6096 10.2746 36.3987 11.2509Z" fill="#7653FC"/>
<path d="M13.5 18.1189L14.5103 20.7099H17.7798L15.1347 22.3112L16.145 24.9022L13.5 23.3008L10.855 24.9022L11.8653 22.3112L9.22025 20.7099H12.4897L13.5 18.1189Z" fill="#7653FC"/>
<path d="M27.5 18.1189L28.5103 20.7099H31.7798L29.1347 22.3112L30.145 24.9022L27.5 23.3008L24.855 24.9022L25.8653 22.3112L23.2202 20.7099H26.4897L27.5 18.1189Z" fill="#7653FC"/>
</svg>
